<?xml version="1.0" encoding="utf-8"?>
<!-- Generator: Adobe Illustrator 20.1.0, SVG Export Plug-In . SVG Version: 6.00 Build 0)  -->
<svg version="1.1" id="Layer_1" xmlns="http://www.w3.org/2000/svg" xmlns:xlink="http://www.w3.org/1999/xlink" x="0px" y="0px"
	 viewBox="0 0 255.8 255.8" style="enable-background:new 0 0 255.8 255.8;" xml:space="preserve">
<style type="text/css">
	.st0{fill:#0000FF;}
</style>
<polygon class="st0" points="169.3,6.6 160,72.4 212.5,31.7 178.8,89 242.9,71.4 189.8,111.4 255.8,119.7 191.4,136.4 249.2,169.3 
	183.4,160 224.1,212.5 166.8,178.8 184.4,242.9 144.4,189.8 136.1,255.8 119.4,191.4 86.5,249.2 95.8,183.4 43.3,224.1 77,166.8 
	12.9,184.4 66,144.4 0,136.1 64.4,119.4 6.6,86.5 72.4,95.8 31.7,43.3 89,77 71.4,12.9 111.4,66 119.7,0 136.4,64.4 "/>
</svg>
