<?xml version="1.0" encoding="utf-8"?>
<!-- Generator: Adobe Illustrator 20.1.0, SVG Export Plug-In . SVG Version: 6.00 Build 0)  -->
<svg version="1.1" id="Layer_1" xmlns="http://www.w3.org/2000/svg" xmlns:xlink="http://www.w3.org/1999/xlink" x="0px" y="0px"
	 viewBox="0 0 235.5 154.5" style="enable-background:new 0 0 235.5 154.5;" xml:space="preserve">
<style type="text/css">
	.st0{fill:#FF00DD;}
</style>
<g>
	<g>
		<g>
			<path class="st0" d="M144.5,38.5c0-10.7,0-21.4,0-32c0-4.7-8.3-4.7-8.3,0c0,10.7,0,21.4,0,32C136.3,43.2,144.5,43.2,144.5,38.5
				L144.5,38.5z"/>
		</g>
	</g>
	<g>
		<g>
			<path class="st0" d="M189.9,30.7c7.1-7.8,15.1-14.8,24-21c1.8-1.2,1.4-3.9,0-5.2c-1.7-1.6-4.1-1.2-5.8,0
				c-8.9,6.2-16.9,13.2-24,21c-1.4,1.6-1.7,3.7,0,5.2C185.5,32,188.5,32.2,189.9,30.7L189.9,30.7z"/>
		</g>
	</g>
	<g>
		<g>
			<path class="st0" d="M77.7,35.7c-7.4-6.6-15.6-12.4-24.3-17.5c-4.5-2.6-8.6,3.8-4.2,6.3c8.2,4.7,15.7,10.2,22.7,16.3
				C75.6,44.2,81.4,39,77.7,35.7L77.7,35.7z"/>
		</g>
	</g>
	<g>
		<g>
			<path class="st0" d="M110.2,26.6c-3.6-8-7.3-16-11-24c-0.8-1.8-2.8-3.1-5.1-2.5c-2,0.5-3.7,2.6-2.9,4.5c3.6,8,7.3,16,11,24
				c0.8,1.8,2.8,3.1,5.1,2.5C109.2,30.6,111,28.5,110.2,26.6L110.2,26.6z"/>
		</g>
	</g>
	<g>
		<g>
			<path class="st0" d="M31.9,53.6c-9.3,0-18.6,0-27.9,0c-5.3,0-5.3,7.3,0,7.3c9.3,0,18.6,0,27.9,0C37.3,61,37.3,53.6,31.9,53.6
				L31.9,53.6z"/>
		</g>
	</g>
	<g>
		<g>
			<path class="st0" d="M36,103.8c-7.9,6.1-14.8,13.2-20.6,20.9c-3,3.9,4.2,7.6,7.2,3.7c5.5-7.2,12-13.7,19.3-19.4
				C45.9,105.8,40,100.7,36,103.8L36,103.8z"/>
		</g>
	</g>
	<g>
		<g>
			<path class="st0" d="M28.7,87.8c-7.1-0.5-14.2,1.9-19.1,6.4c-3.7,3.4,2.1,8.5,5.8,5.2c3.6-3.2,8.2-4.6,13.3-4.3
				C34,95.5,33.9,88.2,28.7,87.8L28.7,87.8z"/>
		</g>
	</g>
	<g>
		<g>
			<path class="st0" d="M126.6,114.3c-0.6,10.1,2.5,20.3,8.8,28.8c2.9,4,10,0.2,7.2-3.7c-5.6-7.5-8.1-16.1-7.7-25.1
				C135.2,109.6,126.9,109.6,126.6,114.3L126.6,114.3z"/>
		</g>
	</g>
	<g>
		<g>
			<path class="st0" d="M171.5,121.1c4.9,1.3,9.4,3.2,13.7,5.8c4.5,2.6,8.6-3.7,4.2-6.3c-4.8-2.8-10.1-5-15.6-6.5
				C168.5,112.7,166.3,119.7,171.5,121.1L171.5,121.1z"/>
		</g>
	</g>
	<g>
		<g>
			<path class="st0" d="M205.2,92.3c8.5,0.2,16.8,1.3,25.1,3.2c5.1,1.2,7.3-5.9,2.2-7.1c-8.9-2.1-18.1-3.2-27.3-3.5
				C199.9,84.8,199.9,92.1,205.2,92.3L205.2,92.3z"/>
		</g>
	</g>
	<g>
		<g>
			<path class="st0" d="M208.8,63.2c4.7,0,9.3,0,14,0c5.3,0,5.3-7.3,0-7.3c-4.7,0-9.3,0-14,0C203.4,55.8,203.4,63.2,208.8,63.2
				L208.8,63.2z"/>
		</g>
	</g>
	<g>
		<g>
			<path class="st0" d="M71.2,116.5c-4.4,6-8.9,12.1-13.3,18.1c-2.9,4,4.2,7.7,7.2,3.7c4.4-6,8.9-12.1,13.3-18.1
				C81.2,116.2,74.1,112.5,71.2,116.5L71.2,116.5z"/>
		</g>
	</g>
	<g>
		<g>
			<path class="st0" d="M95.2,129.9c0,7,0,14.1,0,21.1c0,4.7,8.3,4.7,8.3,0c0-7,0-14.1,0-21.1C103.5,125.1,95.2,125.1,95.2,129.9
				L95.2,129.9z"/>
		</g>
	</g>
</g>
</svg>
