<?xml version="1.0" encoding="utf-8"?>
<!-- Generator: Adobe Illustrator 20.1.0, SVG Export Plug-In . SVG Version: 6.00 Build 0)  -->
<svg version="1.1" id="Layer_1" xmlns="http://www.w3.org/2000/svg" xmlns:xlink="http://www.w3.org/1999/xlink" x="0px" y="0px"
	 viewBox="0 0 277.5 70.6" style="enable-background:new 0 0 277.5 70.6;" xml:space="preserve">
<style type="text/css">
	.st0{fill:#00FF00;}
	.st1{fill:none;}
	.st2{fill:#FFFFFF;}
</style>
<polygon class="st0" points="247.7,7.6 247.7,70.6 277.5,70.6 277.5,0 "/>
<polygon class="st0" points="75,51.5 75,70.6 109.7,70.6 109.7,42.7 "/>
<polygon class="st0" points="0,70.6 23.3,70.6 23.3,64.7 "/>
<polygon class="st1" points="75,0 23.3,0 23.3,64.7 75,51.5 "/>
<polygon class="st2" points="23.3,64.7 23.3,70.6 75,70.6 75,51.5 "/>
<polygon class="st1" points="161.3,0 109.7,0 109.7,42.7 161.3,29.6 "/>
<polygon class="st2" points="109.7,42.7 109.7,70.6 161.3,70.6 161.3,29.6 "/>
<polygon class="st1" points="247.7,0 196,0 196,20.7 247.7,7.6 "/>
<polygon class="st2" points="196,20.7 196,70.6 247.7,70.6 247.7,7.6 "/>
<polygon class="st0" points="161.1,29.6 161.1,70.6 196.3,70.6 196.3,20.7 "/>
</svg>
